<svg xmlns="http://www.w3.org/2000/svg" xmlns:xlink="http://www.w3.org/1999/xlink" version="1.1" x="0px" y="0px" viewBox="0 0 50 62.5" style="enable-background:new 0 0 50 50;" xml:space="preserve"><path fill="#fff" d="M38.6995544,8.8215332c0-0.5073242,0-1.2016602-13.7080078-1.2016602  c-13.7084961,0-13.7084961,0.6943359-13.7084961,1.2016602l0.0087891,31.0795898  c0,0.7456055,1.3359375,2.4790039,13.7084961,2.4790039c12.3720703,0,13.7080078-1.7333984,13.7080078-2.4790039  L38.6995544,8.8215332z M12.2831116,9.4035034c1.4828491,0.4246216,5.8937378,0.6558228,12.7084351,0.6558228  c6.8144531,0,11.2252808-0.2312622,12.7080688-0.6558838l0.0067139,23.4028931  c-0.5075073,0.3531494-2.9694824,1.5767212-12.7059937,1.5767212c-9.6931763,0-12.2304077-1.2702637-12.7105103-1.5822754  L12.2831116,9.4035034z M37.0804749,9.0376587c-1.2153931,0.2203369-4.2988281,0.5216675-12.0889282,0.5216675  c-7.7902222,0-10.8737793-0.3013306-12.0892334-0.5216675C14.1664124,8.8616943,17.301178,8.619873,24.9915466,8.619873  C32.6820374,8.619873,35.8166809,8.8617554,37.0804749,9.0376587z M25.0003357,41.380127  c-10.8740234,0-12.5058594-1.3432617-12.7084961-1.5795898l-0.001709-5.8696899  c1.3668823,0.6206665,4.6897583,1.4522095,12.7102051,1.4522095c8.0063477,0,11.3338013-0.8206787,12.7062988-1.4432373  l0.001709,5.8607178C37.5052185,40.0373535,35.872406,41.380127,25.0003357,41.380127z"/></svg>